<svg xmlns="http://www.w3.org/2000/svg" width="20" height="20" viewBox="0 0 20 20" fill="none">
  <path d="M10.0001 1.87207C8.02133 1.87215 6.10716 2.57633 4.60008 3.85861C3.09299 5.14089 2.09135 6.91759 1.77438 8.87081C1.45741 10.824 1.84579 12.8263 2.87002 14.5194C3.89425 16.2124 5.48751 17.4858 7.3647 18.1116C7.78137 18.1846 7.93762 17.9346 7.93762 17.7158C7.93762 17.5179 7.9272 16.8616 7.9272 16.1637C5.83344 16.5491 5.29177 15.6533 5.1251 15.1846C4.94017 14.7287 4.647 14.3247 4.27094 14.0075C3.97927 13.8512 3.5626 13.4658 4.26051 13.4554C4.527 13.4843 4.78259 13.5771 5.00563 13.7258C5.22867 13.8744 5.41257 14.0747 5.54177 14.3096C5.65575 14.5143 5.809 14.6946 5.99276 14.84C6.17652 14.9854 6.38717 15.0931 6.61263 15.157C6.8381 15.2209 7.07395 15.2396 7.30667 15.2122C7.53939 15.1847 7.76441 15.1116 7.96884 14.9971C8.00491 14.5734 8.19372 14.1773 8.5001 13.8825C6.64594 13.6742 4.70844 12.9554 4.70844 9.76793C4.69673 8.93972 5.00234 8.13841 5.5626 7.52835C5.30784 6.80853 5.33765 6.01858 5.64594 5.32001C5.64594 5.32001 6.34383 5.10125 7.9376 6.17418C9.30118 5.79916 10.7407 5.79916 12.1043 6.17418C13.698 5.09085 14.3959 5.32001 14.3959 5.32001C14.7043 6.01857 14.7341 6.80854 14.4793 7.52835C15.0412 8.13737 15.3471 8.93937 15.3334 9.76793C15.3334 12.9658 13.3855 13.6742 11.5314 13.8825C11.7302 14.0841 11.8834 14.3261 11.9805 14.5921C12.0775 14.8581 12.1162 15.1419 12.0939 15.4242C12.0939 16.5388 12.0834 17.4346 12.0834 17.7158C12.0834 17.9346 12.2397 18.195 12.6563 18.1117C14.5302 17.4807 16.1189 16.2044 17.1388 14.5104C18.1587 12.8165 18.5433 10.8153 18.2242 8.86393C17.905 6.91261 16.9027 5.13821 15.3963 3.8575C13.8899 2.57678 11.9774 1.8731 10.0001 1.87207Z" fill="white"/>
</svg>