<svg width="100" height="100" viewBox="0 0 100 100" fill="none" xmlns="http://www.w3.org/2000/svg">
<path d="M24.9998 54.1668H8.33317C5.83317 54.1668 4.1665 55.8334 4.1665 58.3334V91.6668C4.1665 94.1668 5.83317 95.8334 8.33317 95.8334H24.9998C27.4998 95.8334 29.1665 94.1668 29.1665 91.6668V58.3334C29.1665 55.8334 27.4998 54.1668 24.9998 54.1668ZM91.6665 37.5001H74.9998C72.4998 37.5001 70.8332 39.1668 70.8332 41.6668V91.6668C70.8332 94.1668 72.4998 95.8334 74.9998 95.8334H91.6665C94.1665 95.8334 95.8332 94.1668 95.8332 91.6668V41.6668C95.8332 39.1668 94.1665 37.5001 91.6665 37.5001ZM58.3332 4.16675H41.6665C39.1665 4.16675 37.4998 5.83341 37.4998 8.33342V91.6668C37.4998 94.1668 39.1665 95.8334 41.6665 95.8334H58.3332C60.8332 95.8334 62.4998 94.1668 62.4998 91.6668V8.33342C62.4998 5.83341 60.8332 4.16675 58.3332 4.16675Z" fill="white"/>
</svg>
