<svg width="100" height="100" viewBox="0 0 166 101" fill="none" xmlns="http://www.w3.org/2000/svg">
<path d="M130.583 48.0833L107.25 24.3333C105.583 22.6666 103.083 22.6666 101.417 24.3333C99.7498 25.9999 99.7498 28.4999 101.417 30.1666L121.833 50.5833L101.417 70.9999C100.583 71.8332 100.167 72.6666 100.167 73.9166C100.167 76.4166 101.833 78.0832 104.333 78.0832C105.583 78.0832 106.417 77.6666 107.25 76.8333L131 53.0833C132.25 52.2499 132.25 49.7499 130.583 48.0833Z" fill="white"/>
<path d="M35.4168 47.0833L58.7502 23.3333C60.4168 21.6666 62.9168 21.6666 64.5835 23.3333C66.2502 24.9999 66.2502 27.4999 64.5835 29.1666L44.1668 49.5833L64.5835 69.9999C65.4168 70.8332 65.8335 71.6666 65.8335 72.9166C65.8335 75.4166 64.1668 77.0832 61.6668 77.0832C60.4168 77.0832 59.5835 76.6666 58.7502 75.8333L35.0002 52.0833C33.7502 51.2499 33.7502 48.7499 35.4168 47.0833Z" fill="white"/>
<rect x="86.416" y="10" width="8" height="76.7734" rx="4" transform="rotate(11.5841 86.416 10)" fill="white"/>
</svg>
