<?xml version="1.0" encoding="utf-8"?>
<!-- Svg Vector Icons : http://www.onlinewebfonts.com/icon -->
<!DOCTYPE svg PUBLIC "-//W3C//DTD SVG 1.1//EN" "http://www.w3.org/Graphics/SVG/1.1/DTD/svg11.dtd">
<!-- <svg version="1.1" xmlns="http://www.w3.org/2000/svg" xmlns:xlink="http://www.w3.org/1999/xlink" x="0px" y="0px" viewBox="0 0 256 256" enable-background="new 0 0 256 256" xml:space="preserve">
<metadata> Svg Vector Icons : http://www.onlinewebfonts.com/icon </metadata>
<g><g><path fill="white" d="M128,10C63.1,10,10,63.1,10,128s53.1,118,118,118s118-53.1,118-118S192.9,10,128,10z M192.9,106.4c-2,0-3.9,0-4.9-1l-28.5,33.4c1,2,2,3.9,2,6.9c0,7.9-5.9,13.8-13.8,13.8c-7.9,0-13.8-5.9-13.8-13.8c0-1,0-3,1-3.9l-23.6-16.7c-2,2-4.9,3-7.9,3c-2,0-3.9,0-4.9-1l-23.6,27.5c1,2,2,3.9,2,6.9c0,7.9-5.9,13.8-13.8,13.8c-7.9,0-13.8-5.9-13.8-13.8s5.9-13.8,13.8-13.8c2,0,3.9,0,5.9,1l23.6-27.5c-1-2-2-3.9-2-6.9c0-7.9,5.9-13.8,13.8-13.8c7.9,0,13.8,5.9,13.8,13.8c0,1,0,3-1,3.9l23.6,16.7c2-2,4.9-3,7.9-3c2,0,3.9,0,4.9,1l27.5-33.4c-1-2-2-4.9-2-6.9c0-7.9,5.9-13.8,13.8-13.8c7.9,0,13.8,5.9,13.8,13.8C206.7,100.5,200.8,106.4,192.9,106.4z"/></g></g>
</svg> -->

<svg version="1.1" xmlns="http://www.w3.org/2000/svg" xmlns:xlink="http://www.w3.org/1999/xlink" x="0px" y="0px" viewBox="0 0 256 256" enable-background="new 0 0 256 256" xml:space="preserve">
  <metadata> Svg Vector Icons : http://www.onlinewebfonts.com/icon </metadata>
  <!-- White background rectangle -->
  <circle cx="128" cy="128" r="115" fill="white"/>
  <g>
    <g>
      <!-- The path now uses a different fill color -->
      <path fill="black" d="M128,10C63.1,10,10,63.1,10,128s53.1,118,118,118s118-53.1,118-118S192.9,10,128,10z M192.9,106.4c-2,0-3.9,0-4.9-1l-28.5,33.4c1,2,2,3.9,2,6.9c0,7.9-5.9,13.8-13.8,13.8c-7.9,0-13.8-5.9-13.8-13.8c0-1,0-3,1-3.9l-23.6-16.7c-2,2-4.9,3-7.9,3c-2,0-3.9,0-4.9-1l-23.6,27.5c1,2,2,3.9,2,6.9c0,7.9-5.9,13.8-13.8,13.8c-7.9,0-13.8-5.9-13.8-13.8s5.9-13.8,13.8-13.8c2,0,3.9,0,5.9,1l23.6-27.5c-1-2-2-3.9-2-6.9c0-7.9,5.9-13.8,13.8-13.8c7.9,0,13.8,5.9,13.8,13.8c0,1,0,3-1,3.9l23.6,16.7c2-2,4.9-3,7.9-3c2,0,3.9,0,4.9,1l27.5-33.4c-1-2-2-4.9-2-6.9c0-7.9,5.9-13.8,13.8-13.8c7.9,0,13.8,5.9,13.8,13.8C206.7,100.5,200.8,106.4,192.9,106.4z"/>
    </g>
  </g>
</svg>
