<svg xmlns="http://www.w3.org/2000/svg" width="20" height="20" viewBox="0 0 20 20" fill="none">
  <path d="M17.0582 1.66662H2.94155C2.78287 1.66442 2.6253 1.69349 2.47786 1.75219C2.33041 1.81089 2.19597 1.89805 2.08222 2.00871C1.96846 2.11937 1.87762 2.25136 1.81488 2.39713C1.75214 2.5429 1.71873 2.6996 1.71655 2.85829V17.1416C1.71873 17.3003 1.75214 17.457 1.81488 17.6028C1.87762 17.7486 1.96846 17.8805 2.08222 17.9912C2.19597 18.1019 2.33041 18.189 2.47786 18.2477C2.6253 18.3064 2.78287 18.3355 2.94155 18.3333H17.0582C17.2169 18.3355 17.3745 18.3064 17.5219 18.2477C17.6694 18.189 17.8038 18.1019 17.9176 17.9912C18.0313 17.8805 18.1222 17.7486 18.1849 17.6028C18.2476 17.457 18.281 17.3003 18.2832 17.1416V2.85829C18.281 2.6996 18.2476 2.5429 18.1849 2.39713C18.1222 2.25136 18.0313 2.11937 17.9176 2.00871C17.8038 1.89805 17.6694 1.81089 17.5219 1.75219C17.3745 1.69349 17.2169 1.66442 17.0582 1.66662ZM6.74155 15.6166H4.24155V8.11662H6.74155V15.6166ZM5.49155 7.06662C5.14677 7.06662 4.81611 6.92966 4.57231 6.68586C4.32852 6.44206 4.19155 6.1114 4.19155 5.76662C4.19155 5.42184 4.32852 5.09118 4.57231 4.84738C4.81611 4.60358 5.14677 4.46662 5.49155 4.46662C5.67463 4.44586 5.86003 4.464 6.03562 4.51986C6.2112 4.57571 6.373 4.66803 6.51043 4.79076C6.64786 4.91348 6.75782 5.06385 6.83311 5.23202C6.9084 5.40019 6.94732 5.58237 6.94732 5.76662C6.94732 5.95087 6.9084 6.13305 6.83311 6.30122C6.75782 6.46939 6.64786 6.61976 6.51043 6.74249C6.373 6.86521 6.2112 6.95753 6.03562 7.01338C5.86003 7.06924 5.67463 7.08738 5.49155 7.06662ZM15.7582 15.6166H13.2582V11.5916C13.2582 10.5833 12.8999 9.92495 11.9916 9.92495C11.7104 9.92701 11.4367 10.0152 11.2072 10.1776C10.9778 10.34 10.8036 10.5688 10.7082 10.8333C10.643 11.0292 10.6147 11.2354 10.6249 11.4416V15.6083H8.12489C8.12489 15.6083 8.12489 8.79162 8.12489 8.10829H10.6249V9.16662C10.852 8.77254 11.1823 8.44789 11.5803 8.22762C11.9782 8.00736 12.4287 7.89983 12.8832 7.91662C14.5499 7.91662 15.7582 8.99162 15.7582 11.3V15.6166Z" fill="white"/>
</svg>