<svg width="100" height="100" viewBox="0 0 100 100" fill="none" xmlns="http://www.w3.org/2000/svg">
<path d="M91.6669 30.1667C91.6701 29.6183 91.565 29.0747 91.3576 28.567C91.1503 28.0594 90.8447 27.5977 90.4586 27.2083L72.7919 9.54165C72.4026 9.15548 71.9408 8.84996 71.4332 8.64261C70.9255 8.43526 70.3819 8.33015 69.8336 8.33332C69.2852 8.33015 68.7416 8.43526 68.234 8.64261C67.7263 8.84996 67.2646 9.15548 66.8752 9.54165L55.0836 21.3333L9.5419 66.875C9.15573 67.2643 8.8502 67.7261 8.64285 68.2337C8.4355 68.7414 8.3304 69.285 8.33357 69.8333V87.5C8.33357 88.6051 8.77255 89.6649 9.55395 90.4463C10.3354 91.2277 11.3952 91.6667 12.5002 91.6667H30.1669C30.7499 91.6984 31.3331 91.6072 31.8787 91.399C32.4242 91.1909 32.9199 90.8704 33.3336 90.4583L78.6252 44.9167L90.4586 33.3333C90.8389 32.9295 91.1488 32.4647 91.3752 31.9583C91.4154 31.6262 91.4154 31.2904 91.3752 30.9583C91.3947 30.7644 91.3947 30.5689 91.3752 30.375L91.6669 30.1667ZM28.4586 83.3333H16.6669V71.5417L58.0419 30.1667L69.8336 41.9583L28.4586 83.3333ZM75.7086 36.0833L63.9169 24.2917L69.8336 18.4167L81.5836 30.1667L75.7086 36.0833Z" fill="white"/>
</svg>
