<svg width="61" height="34" viewBox="0 0 61 34" fill="none" xmlns="http://www.w3.org/2000/svg">
<rect x="14.1558" y="8.44238" width="6.40421" height="18.7984" fill="white"/>
<path fill-rule="evenodd" clip-rule="evenodd" d="M32.5168 6.74942H0.785645L6.15941 0.345215H60.7491L55.3754 6.74942H48.7383V10.5908H48.7398V15.1278C48.7398 16.1591 47.9039 16.995 46.8727 16.995H38.921V20.8366H60.7421L55.3683 27.2408H34.385C33.3537 27.2408 32.5178 26.4048 32.5178 25.3736V21.433H32.5168V16.995H29.1017V27.2525H22.6975V10.5909H28.3317V10.5908H32.5168V6.74942ZM38.921 10.5908V6.74942H42.3341V10.5908H38.921Z" fill="white"/>
<path d="M58.9751 32.7736C58.9751 32.6245 58.9411 32.5098 58.8731 32.4296C58.8068 32.3479 58.718 32.2912 58.6069 32.2597C58.4958 32.2282 58.3739 32.2124 58.2412 32.2124H57.6565V33.2982H58.2213C58.3059 33.2982 58.3921 33.291 58.48 33.2767C58.5679 33.2624 58.6492 33.2366 58.7239 33.1993C58.8001 33.162 58.8607 33.1097 58.9055 33.0423C58.9519 32.9735 58.9751 32.8839 58.9751 32.7736ZM58.8383 31.4104C58.8383 31.2427 58.7778 31.1238 58.6567 31.0535C58.5373 30.9819 58.3739 30.946 58.1665 30.946H57.6565V31.905H58.2088C58.4112 31.905 58.5663 31.8663 58.6741 31.7889C58.7836 31.71 58.8383 31.5839 58.8383 31.4104ZM59.4304 32.7607C59.4304 32.9212 59.3931 33.056 59.3185 33.1649C59.2455 33.2738 59.1468 33.3605 59.0224 33.425C58.8997 33.4896 58.762 33.5361 58.6094 33.5648C58.4585 33.592 58.3042 33.6057 58.1466 33.6057H57.2261V30.645H58.0695C58.2204 30.645 58.3672 30.6572 58.5099 30.6816C58.6542 30.7045 58.7836 30.7446 58.898 30.802C59.0141 30.8579 59.107 30.9338 59.1767 31.0299C59.2463 31.1259 59.2812 31.2463 59.2812 31.3911C59.2812 31.5187 59.2505 31.6269 59.1891 31.7157C59.1294 31.8032 59.0506 31.8734 58.9527 31.9265C58.8565 31.9795 58.7537 32.0168 58.6442 32.0383C58.7719 32.0555 58.8955 32.0891 59.0149 32.1393C59.136 32.188 59.2355 32.2626 59.3135 32.3629C59.3915 32.4618 59.4304 32.5944 59.4304 32.7607Z" fill="white"/>
<path d="M56.3866 30.645V32.6467C56.3866 32.846 56.3394 33.0216 56.2448 33.1735C56.1519 33.3254 56.0201 33.4437 55.8492 33.5283C55.68 33.6128 55.4802 33.6551 55.2496 33.6551C55.0141 33.6551 54.8117 33.6128 54.6425 33.5283C54.475 33.4422 54.3465 33.3233 54.2569 33.1713C54.1673 33.0194 54.1226 32.8445 54.1226 32.6467V30.645H54.5505V32.6596C54.5505 32.8847 54.611 33.0531 54.7321 33.1649C54.8549 33.2767 55.0274 33.3326 55.2496 33.3326C55.4735 33.3326 55.646 33.2767 55.7671 33.1649C55.8899 33.0531 55.9512 32.8847 55.9512 32.6596V30.645H56.3866Z" fill="white"/>
<path d="M51.4517 33.6057V30.645H51.8846V33.2724H53.447L53.3973 33.6057H51.4517Z" fill="white"/>
<path d="M49.5748 30.5977C49.7987 30.5977 49.9862 30.622 50.1371 30.6708C50.288 30.7195 50.4315 30.7912 50.5675 30.8858L50.3262 31.1287C50.2184 31.0499 50.1039 30.994 49.9828 30.961C49.8634 30.9266 49.7382 30.9094 49.6072 30.9094C49.4197 30.9094 49.2464 30.9481 49.0872 31.0255C48.9279 31.1015 48.7994 31.2283 48.7015 31.4061C48.6053 31.5824 48.5572 31.8218 48.5572 32.1242C48.5572 32.418 48.6028 32.6538 48.6941 32.8316C48.7869 33.0093 48.9122 33.1376 49.0697 33.2164C49.2273 33.2953 49.4031 33.3347 49.5972 33.3347C49.7896 33.3347 49.9472 33.3096 50.0699 33.2594C50.1943 33.2093 50.3021 33.1519 50.3934 33.0874L50.6173 33.3325C50.5128 33.42 50.3768 33.4959 50.2092 33.5604C50.0417 33.6235 49.836 33.655 49.5922 33.655C49.3152 33.655 49.0639 33.5963 48.8384 33.4787C48.6144 33.3612 48.437 33.1892 48.3059 32.9627C48.1749 32.7348 48.1094 32.4553 48.1094 32.1242C48.1094 31.7917 48.1757 31.5121 48.3084 31.2857C48.4428 31.0592 48.6211 30.8879 48.8433 30.7718C49.0673 30.6557 49.3111 30.5977 49.5748 30.5977Z" fill="white"/>
<path d="M43.3863 33.655C43.1159 33.655 42.8804 33.5984 42.6797 33.4852C42.4807 33.372 42.3264 33.2021 42.2169 32.9756C42.1075 32.7492 42.0527 32.4653 42.0527 32.1242C42.0527 31.8691 42.0917 31.6462 42.1697 31.4555C42.2493 31.2649 42.3563 31.1058 42.4906 30.9782C42.6266 30.8506 42.7801 30.7553 42.9509 30.6923C43.1234 30.6292 43.3017 30.5977 43.4858 30.5977C43.7097 30.5977 43.8955 30.6256 44.0431 30.6815C44.1908 30.736 44.3317 30.8162 44.4661 30.9223L44.2049 31.1567C44.1004 31.0721 43.9901 31.0098 43.874 30.9696C43.7595 30.9295 43.631 30.9094 43.4883 30.9094C43.3639 30.9094 43.2437 30.9302 43.1276 30.9718C43.0114 31.0133 42.9069 31.0814 42.8141 31.176C42.7228 31.2692 42.6499 31.3932 42.5951 31.548C42.542 31.7028 42.5155 31.8949 42.5155 32.1242C42.5155 32.4094 42.5495 32.6416 42.6175 32.8208C42.6872 33 42.7892 33.1319 42.9235 33.2164C43.0595 33.2996 43.2271 33.3411 43.4261 33.3411C43.5455 33.3411 43.6583 33.329 43.7645 33.3046C43.8723 33.2802 43.9768 33.2451 44.078 33.1992V32.2962H43.4037L43.3515 31.9866H44.5059V33.397C44.3516 33.4687 44.1874 33.5296 44.0133 33.5798C43.8391 33.63 43.6301 33.655 43.3863 33.655Z" fill="white"/>
<path d="M40.8073 33.6057L39.6007 31.0019C39.6023 31.0349 39.6056 31.0901 39.6106 31.1675C39.6173 31.2435 39.6239 31.3345 39.6305 31.4405C39.6388 31.5452 39.6455 31.6563 39.6504 31.7738C39.6554 31.8913 39.6579 32.0074 39.6579 32.1221V33.6057H39.2573V30.645H39.842L41.0686 33.2595C41.0669 33.2179 41.0611 33.142 41.0512 33.0316C41.0412 32.9198 41.0321 32.785 41.0238 32.6274C41.0155 32.4697 41.0114 32.3027 41.0114 32.1264V30.645H41.4119V33.6057H40.8073Z" fill="white"/>
<path d="M38.3341 30.645V30.9439H37.5728V33.3068H38.3341V33.6057H36.3735V33.3068H37.1349V30.9439H36.3735V30.645H38.3341Z" fill="white"/>
<path d="M35.5173 30.645L35.7114 33.6057H35.2959L35.1889 32.0598C35.1839 31.9551 35.1789 31.8491 35.174 31.7416C35.169 31.634 35.1657 31.5308 35.164 31.4319C35.1623 31.333 35.1615 31.2449 35.1615 31.1675C35.1615 31.0901 35.1615 31.0299 35.1615 30.9869L34.5843 33.0746H34.1514L33.5319 30.9869C33.5335 31.0284 33.5352 31.0901 33.5368 31.1718C33.5385 31.2521 33.5393 31.3431 33.5393 31.4448C33.541 31.5466 33.5402 31.6512 33.5368 31.7588C33.5352 31.8648 33.5319 31.9637 33.5269 32.0555L33.4348 33.6057H33.0293L33.2234 30.645H33.8255L34.3803 32.6725L34.9102 30.645H35.5173Z" fill="white"/>
<path d="M32.5324 30.645L32.7265 33.6057H32.311L32.204 32.0598C32.199 31.9551 32.1941 31.8491 32.1891 31.7416C32.1841 31.634 32.1808 31.5308 32.1791 31.4319C32.1775 31.333 32.1767 31.2449 32.1767 31.1675C32.1767 31.0901 32.1767 31.0299 32.1767 30.9869L31.5994 33.0746H31.1665L30.547 30.9869C30.5487 31.0284 30.5503 31.0901 30.552 31.1718C30.5536 31.2521 30.5545 31.3431 30.5545 31.4448C30.5561 31.5466 30.5553 31.6512 30.552 31.7588C30.5503 31.8648 30.547 31.9637 30.542 32.0555L30.45 33.6057H30.0444L30.2385 30.645H30.8406L31.3954 32.6725L31.9254 30.645H32.5324Z" fill="white"/>
<path d="M29.0653 32.851H27.7094L27.4357 33.6057H27.0103L28.1249 30.645H28.6772L29.7918 33.6057H29.339L29.0653 32.851ZM27.8213 32.5414H28.9534L28.3911 30.9589L27.8213 32.5414Z" fill="white"/>
<path d="M26.5992 31.4749C26.5992 31.6226 26.5619 31.7516 26.4873 31.862C26.4143 31.9723 26.3148 32.0633 26.1887 32.135C26.0626 32.2067 25.9208 32.259 25.7633 32.292L26.7784 33.6057H26.2609L25.3254 32.335H24.8626V33.6057H24.4297V30.645H25.3104C25.7334 30.645 26.0535 30.7153 26.2708 30.8557C26.4898 30.9948 26.5992 31.2012 26.5992 31.4749ZM26.1365 31.4749C26.1365 31.2843 26.0734 31.1481 25.9474 31.0664C25.8213 30.9833 25.6256 30.9417 25.3602 30.9417H24.8626V32.0426H25.3602C25.6057 32.0426 25.7964 31.9996 25.9324 31.9136C26.0685 31.8261 26.1365 31.6799 26.1365 31.4749Z" fill="white"/>
<path d="M22.502 33.655C22.2317 33.655 21.9961 33.5984 21.7954 33.4852C21.5964 33.372 21.4421 33.2021 21.3327 32.9756C21.2232 32.7492 21.1685 32.4653 21.1685 32.1242C21.1685 31.8691 21.2074 31.6462 21.2854 31.4555C21.365 31.2649 21.472 31.1058 21.6063 30.9782C21.7424 30.8506 21.8958 30.7553 22.0666 30.6923C22.2391 30.6292 22.4174 30.5977 22.6015 30.5977C22.8255 30.5977 23.0112 30.6256 23.1589 30.6815C23.3065 30.736 23.4475 30.8162 23.5818 30.9223L23.3206 31.1567C23.2161 31.0721 23.1058 31.0098 22.9897 30.9696C22.8752 30.9295 22.7467 30.9094 22.604 30.9094C22.4796 30.9094 22.3594 30.9302 22.2433 30.9718C22.1272 31.0133 22.0227 31.0814 21.9298 31.176C21.8386 31.2692 21.7656 31.3932 21.7108 31.548C21.6578 31.7028 21.6312 31.8949 21.6312 32.1242C21.6312 32.4094 21.6652 32.6416 21.7332 32.8208C21.8029 33 21.9049 33.1319 22.0393 33.2164C22.1753 33.2996 22.3428 33.3411 22.5418 33.3411C22.6613 33.3411 22.774 33.329 22.8802 33.3046C22.988 33.2802 23.0925 33.2451 23.1937 33.1992V32.2962H22.5194L22.4672 31.9866H23.6216V33.397C23.4674 33.4687 23.3032 33.5296 23.129 33.5798C22.9548 33.63 22.7459 33.655 22.502 33.655Z" fill="white"/>
<path d="M20.7108 32.1285C20.7108 32.4266 20.6636 32.6911 20.569 32.9219C20.4761 33.1512 20.336 33.3311 20.1485 33.4615C19.9611 33.5905 19.7281 33.655 19.4494 33.655C19.1724 33.655 18.9394 33.592 18.7503 33.4658C18.5628 33.3383 18.4219 33.1605 18.3273 32.9326C18.2344 32.7047 18.188 32.4381 18.188 32.1328C18.188 31.8332 18.2344 31.5681 18.3273 31.3373C18.4219 31.1065 18.5628 30.9259 18.7503 30.7955C18.9394 30.6636 19.1724 30.5977 19.4494 30.5977C19.7281 30.5977 19.9611 30.6614 20.1485 30.789C20.336 30.9166 20.4761 31.095 20.569 31.3244C20.6636 31.5537 20.7108 31.8218 20.7108 32.1285ZM20.258 32.1285C20.258 31.7343 20.195 31.4326 20.0689 31.2233C19.9445 31.0141 19.738 30.9094 19.4494 30.9094C19.1608 30.9094 18.9535 31.0148 18.8274 31.2255C18.703 31.4362 18.6408 31.7386 18.6408 32.1328C18.6408 32.527 18.7055 32.8273 18.8349 33.0337C18.9642 33.2386 19.1691 33.3411 19.4494 33.3411C19.738 33.3411 19.9445 33.2379 20.0689 33.0315C20.195 32.8237 20.258 32.5227 20.258 32.1285Z" fill="white"/>
<path d="M17.649 31.4749C17.649 31.6226 17.6117 31.7516 17.5371 31.862C17.4641 31.9723 17.3646 32.0633 17.2385 32.135C17.1124 32.2067 16.9706 32.259 16.8131 32.292L17.8282 33.6057H17.3107L16.3752 32.335H15.9124V33.6057H15.4795V30.645H16.3602C16.7832 30.645 17.1033 30.7153 17.3206 30.8557C17.5396 30.9948 17.649 31.2012 17.649 31.4749ZM17.1863 31.4749C17.1863 31.2843 17.1232 31.1481 16.9972 31.0664C16.8711 30.9833 16.6754 30.9417 16.41 30.9417H15.9124V32.0426H16.41C16.6555 32.0426 16.8462 31.9996 16.9822 31.9136C17.1183 31.8261 17.1863 31.6799 17.1863 31.4749Z" fill="white"/>
<path d="M14.2996 31.5588C14.2996 31.4054 14.2647 31.2843 14.1951 31.1954C14.1254 31.1051 14.03 31.0406 13.909 31.0019C13.7879 30.9618 13.6494 30.9417 13.4935 30.9417H12.9983V32.206H13.476C13.6369 32.206 13.7787 32.1873 13.9015 32.1501C14.0242 32.1114 14.1213 32.0454 14.1926 31.9523C14.2639 31.8577 14.2996 31.7265 14.2996 31.5588ZM14.7623 31.5545C14.7623 31.7853 14.7051 31.9702 14.5907 32.1092C14.4779 32.2482 14.322 32.3493 14.1229 32.4124C13.9239 32.4754 13.695 32.507 13.4362 32.507H12.9983V33.6057H12.5654V30.645H13.4412C13.8492 30.645 14.171 30.7196 14.4066 30.8686C14.6437 31.0163 14.7623 31.2449 14.7623 31.5545Z" fill="white"/>
<path d="M7.07989 30.9503V31.948H8.34877V32.2554H7.07989V33.3068H8.63737V33.6057H6.64697V30.645H8.59259L8.54283 30.9503H7.07989Z" fill="white"/>
<path d="M5.17926 33.6057V32.2017H3.8855V33.6057H3.45508V30.645H3.8855V31.8964H5.17926V30.645H5.60969V33.6057H5.17926Z" fill="white"/>
<path d="M1.75515 30.9654V33.6057H1.32472V30.9654H0.254883V30.645H2.83992L2.79513 30.9654H1.75515Z" fill="white"/>
</svg>
